<svg id="Capa_1" data-name="Capa 1" xmlns="http://www.w3.org/2000/svg" viewBox="0 0 1428.49 347.84">
  <defs>
    <style>
      .cls-1 {
        fill: #016380;
      }

      .cls-2 {
        fill: #a8a8a8;
      }
    </style>
  </defs>
  <title>logo</title>
  <rect class="cls-1" x="425.03" y="100.79" width="60.12" height="173.21"/>
  <g>
    <path class="cls-1" d="M546,132.65H600.7v31.91h0.64c12-25,36.06-35.92,63.37-35.92,24.7,0,45.06,10.65,54.37,33.25,14-23.29,37.08-33.25,61.71-33.25,50,0,61.4,28.26,61.4,75.17v102H782.13V212.75c0-19.58-7-34.2-24-34.2-21.38,0-34,16.92-34,54.18v73.14h-60V212.75c0-19.58-7-34.2-24.06-34.2-21.31,0-34,16.92-34,54.18v73.14H546V132.65Z" transform="translate(-26.14 -31.86)"/>
    <path class="cls-1" d="M1015.62,182.19c-11-6.65-22-9.64-36.37-9.64-26,0-46,17.93-46,47.86C933.24,248,956.6,266,982.57,266c13.67,0,27.39-3,37.39-8.29l1.28,44.54a162.76,162.76,0,0,1-48.94,7.59c-57.38,0-101.09-33.18-101.09-90.43,0-57.5,43.71-90.75,101.09-90.75,18,0,33.93,3,47.65,9.69Z" transform="translate(-26.14 -31.86)"/>
    <path class="cls-1" d="M1379.31,182.19c-11-6.65-22-9.64-36.37-9.64-26,0-46,17.93-46,47.86,0,27.63,23.34,45.56,49.4,45.56,13.65,0,27.3-3,37.34-8.29l1.33,44.54a163.19,163.19,0,0,1-49.07,7.59c-57.38,0-101-33.18-101-90.43,0-57.5,43.64-90.75,101-90.75,18,0,34.07,3,47.74,9.69Z" transform="translate(-26.14 -31.86)"/>
    <path class="cls-1" d="M1048.81,330.17a73.4,73.4,0,0,0,23.67,3.63c14.76,0,26-8.67,30.38-24l-70.38-177.16h64.71l37.39,113h0.63l35.67-113h60.06l-63.68,161.21c-17,43.59-30,85.84-85.06,85.84a174.74,174.74,0,0,1-37.34-4Z" transform="translate(-26.14 -31.86)"/>
    <path class="cls-2" d="M146.24,162.45a65.46,65.46,0,0,1,102.86,0l92.11-53.07a171.64,171.64,0,0,0-287.07,0Z" transform="translate(-26.14 -31.86)"/>
    <path class="cls-2" d="M188.19,267.32a65.06,65.06,0,0,1-51.37-88.63L44.72,125.75a169.8,169.8,0,0,0-18.58,77.08c0,91.22,71.77,165.52,162.05,170.43V267.32Z" transform="translate(-26.14 -31.86)"/>
    <path class="cls-1" d="M350.55,125.75l-92,52.94a65.06,65.06,0,0,1-51.44,88.63V373.26c90.29-4.86,162.06-79.21,162.06-170.44a169,169,0,0,0-18.58-77.08" transform="translate(-26.14 -31.86)"/>
    <path class="cls-1" d="M1417.72,144.32A21.55,21.55,0,1,0,1433,138a20.83,20.83,0,0,0-15.28,6.35m2.78,28.37a19.64,19.64,0,0,1,0-26.18,17.37,17.37,0,0,1,25,0,19.71,19.71,0,0,1,0,26.22,17.43,17.43,0,0,1-25,0m4.23-.45h4.13V161h3.47l7.05,11.21,4.41,0-7.19-11.2a6.14,6.14,0,0,0,4.76-1.95,7.25,7.25,0,0,0,1.77-5.07q0-7.13-8.69-7.13h-9.71v25.35Zm4.13-22.11h4.92a7.28,7.28,0,0,1,3.75.87,3.06,3.06,0,0,1,1.47,2.85c0,1.56-.44,2.6-1.29,3.15a7.54,7.54,0,0,1-3.92.81h-4.92v-7.67Z" transform="translate(-26.14 -31.86)"/>
  </g>
</svg>
